<svg xmlns="http://www.w3.org/2000/svg" width="210" height="210" viewBox="0 0 210 210" version="1.1">
	<defs>
		<linearGradient id="messengerGradient" x1="100%" y1="20%" x2="60%" y2="110%">
			<stop offset="0%" style="stop-color:#FC206C;stop-opacity:1" />
			<stop offset="100%" style="stop-color:#06B4FC;stop-opacity:1" />
		</linearGradient>
	</defs>
	<path d="M 95.472 25.013 C 67.886 27.932, 43.770 43.782, 31.558 67.022 C 25.586 78.386, 22.859 89.685, 22.751 103.500 C 22.575 126.207, 29.503 144.072, 44.697 160.090 L 49.999 165.680 50.637 175.090 C 51.358 185.733, 52.063 187.693, 55.659 189.061 C 57.731 189.848, 59.971 189.266, 67.849 185.894 C 78.626 181.281, 79.081 181.216, 87.500 183.082 C 97.437 185.285, 115.959 184.816, 126.500 182.095 C 151.426 175.661, 170.198 160.210, 180.470 137.675 C 190.084 116.582, 189.703 90.166, 179.484 69.327 C 164.590 38.953, 131.032 21.252, 95.472 25.013 M 135.699 91.496 C 128.109 97.273, 120.970 102, 119.835 102 C 118.699 102, 112.609 98.175, 106.299 93.500 C 96.551 86.276, 94.248 85, 90.961 85 C 83.834 85, 82.631 86.242, 69.254 107.426 C 50.952 136.409, 51.896 139.292, 74.218 122.581 C 81.992 116.762, 89.236 112, 90.316 112 C 91.396 112, 97.069 115.574, 102.922 119.942 C 108.775 124.310, 114.787 128.349, 116.282 128.917 C 119.543 130.157, 123.774 129.448, 126.721 127.169 C 130.077 124.573, 154.106 85.796, 153.782 83.500 C 153.195 79.336, 149.568 80.940, 135.699 91.496" stroke="none" fill="url(#messengerGradient)" fill-rule="evenodd"/>
</svg>