<svg xmlns="http://www.w3.org/2000/svg" width="48" height="48" viewBox="0 0 48 48" fill="none">
  <circle cx="24" cy="24" r="24" fill="black"/>
  <path d="M34.5 20.9288V16.2175C32.5613 16.2175 30.9 15.55 29.7 14.35C28.0862 12.7288 28.0425 10.7838 28.0175 10H23.3675V29.875C23.3675 32.3 21.4288 34.2388 19 34.2388C16.575 34.2388 14.6325 32.3 14.6325 29.875C14.6325 27.4538 16.575 25.5112 19 25.5112C19.6675 25.5112 20.3 25.67 20.8637 25.9512V21.1675C20.2588 21.0625 19.6362 21 19 21C14.0375 21 10 25.0375 10 30C10 34.9625 14.0375 39 19 39C23.9625 39 28 34.9625 28 30V19.7962C29.6663 20.9688 31.6838 21.625 33.8375 21.625V20.9288H34.5Z" fill="white"/>
  <path d="M33.8375 16.2175V15.5H33.1125C31.3363 15.5 29.8175 14.9875 28.7 14.0275V14.35C29.9 15.55 31.5613 16.2175 33.5 16.2175H33.8375Z" fill="#00F2EA"/>
  <path d="M28 19.125V19.7962C29.6663 20.9688 31.6838 21.625 33.8375 21.625V20.9288V16.2175C31.5613 16.2175 29.9 15.55 28.7 14.35C28.0863 12.7288 28.0425 10.7838 28.0175 10H23.3675V29.875C23.3675 32.3 21.4288 34.2388 19 34.2388C16.575 34.2388 14.6325 32.3 14.6325 29.875C14.6325 27.4538 16.575 25.5112 19 25.5112C19.6675 25.5112 20.3 25.67 20.8637 25.9512V21.1675C20.2588 21.0625 19.6363 21 19 21C14.0375 21 10 25.0375 10 30C10 34.9625 14.0375 39 19 39C23.9625 39 28 34.9625 28 30V19.125Z" fill="#FF004F"/>
</svg>