<?xml version="1.0" encoding="utf-8"?>
<!DOCTYPE svg PUBLIC "-//W3C//DTD SVG 1.0//EN" "http://www.w3.org/TR/2001/REC-SVG-20010904/DTD/svg10.dtd">
<svg version="1.0" xmlns="http://www.w3.org/2000/svg" width="800px" height="800px" viewBox="0 0 800 800" preserveAspectRatio="xMidYMid meet">
 <g fill="#005be0">
  <path d="M271 799.2 c-5.4 -0.3 -7 -0.8 -9.5 -3 l-3 -2.7 2.4 2.8 2.4 2.7 -2.5 0 c-1.7 0 -3.5 -1.3 -5.9 -4.2 -1.8 -2.4 -14.9 -16 -28.9 -30.3 -14 -14.3 -32.7 -33.6 -41.5 -43 -8.8 -9.3 -25.1 -26.3 -36.3 -37.7 -15.5 -15.9 -20.2 -21.4 -20.2 -23.3 0 -2.1 3.2 0.7 19.3 17.2 10.6 10.9 27.3 28.2 37.1 38.6 9.8 10.3 18.1 18.7 18.3 18.7 0.7 0 -24.7 -26.8 -48.7 -51.5 -10.2 -10.5 -20.3 -20.9 -22.5 -23.3 l-3.9 -4.2 7.2 0 c5.6 0 7.2 0.3 7.2 1.4 0 0.8 -0.8 1.7 -1.7 1.9 -1 0.3 1.4 0.5 5.2 0.5 3.9 0 6.2 -0.2 5.2 -0.5 -0.9 -0.2 -1.7 -1.1 -1.7 -2 0 -1.2 1.3 -1.4 7 -1.1 3.9 0.2 7 0 7 -0.3 0 -0.3 2.7 -0.9 5.9 -1.2 13.7 -1.5 34.7 -6.9 50.6 -13.2 4.9 -1.9 10.3 -3.5 11.8 -3.5 1.8 0 7.1 2.5 13.6 6.4 47.2 28.3 107.5 48.2 170.6 56.2 7.7 1 14.1 2 14.2 2.3 0.2 0.4 2.5 0.4 5.3 0.3 4 -0.3 5 -0.1 5 1.1 0 0.9 -0.8 1.8 -1.7 2 -1 0.3 0 0.5 2.2 0.5 2.2 0 3.2 -0.2 2.2 -0.5 -3.6 -0.9 -0.4 -2.3 5.4 -2.3 4.4 0 5.9 0.4 5.9 1.4 0 0.8 -0.8 1.7 -1.7 1.9 -1 0.3 0.9 0.5 4.2 0.5 3.3 0 5.2 -0.2 4.2 -0.5 -0.9 -0.2 -1.5 -0.9 -1.2 -1.4 0.4 -0.5 5.8 -0.9 12.1 -0.9 9.2 0 11.4 0.3 11.4 1.4 0 0.8 -0.8 1.7 -1.7 1.9 -1 0.3 1.4 0.5 5.2 0.5 3.9 0 6.2 -0.2 5.3 -0.5 -1 -0.2 -1.8 -1.1 -1.8 -1.9 0 -1.1 2.2 -1.4 11.4 -1.4 6.3 0 11.7 0.4 12.1 0.9 0.3 0.5 -0.3 1.2 -1.2 1.4 -1 0.3 0.7 0.5 3.7 0.5 3 0 4.7 -0.2 3.8 -0.5 -1 -0.2 -1.8 -1.1 -1.8 -1.9 0 -1 1.5 -1.4 5.9 -1.4 5.8 0 9 1.4 5.4 2.3 -1 0.3 0 0.5 2.2 0.5 2.2 0 3.2 -0.2 2.3 -0.5 -1 -0.2 -1.8 -1.1 -1.8 -2 0 -1.2 1.1 -1.4 5.5 -1.1 3 0.1 5.6 0.1 5.8 -0.2 0.1 -0.3 6.3 -1.3 13.7 -2.2 94.2 -11.8 177.4 -48.7 229.4 -101.7 5.4 -5.6 10.2 -10.1 10.7 -10.1 1.7 0 2.2 7.8 1.6 24.4 -2.1 60.4 -18.7 102.4 -54 136.3 -15.9 15.3 -34.5 27.3 -54.5 35.3 -20.3 8.1 -43.2 12.3 -77.2 14 -18.3 0.9 -323.8 1.1 -342 0.2z m-12 -6.5 c0 -0.1 -2.4 -2.5 -5.2 -5.2 l-5.3 -5 5 5.3 c4.6 4.8 5.5 5.7 5.5 4.9z m-10 -11 c0 -0.1 -10.5 -10.6 -23.2 -23.2 l-23.3 -23 23 23.3 c21.4 21.6 23.5 23.7 23.5 22.9z m182.8 -76.4 c-1 -0.2 -2.6 -0.2 -3.5 0 -1 0.3 -0.2 0.5 1.7 0.5 1.9 0 2.7 -0.2 1.8 -0.5z m113 0 c-1 -0.2 -2.6 -0.2 -3.5 0 -1 0.3 -0.2 0.5 1.7 0.5 1.9 0 2.7 -0.2 1.8 -0.5z m-262.8 -37.8 c-1.4 -0.8 -2.9 -1.4 -3.5 -1.4 -0.5 0 0.1 0.6 1.5 1.4 1.4 0.8 3 1.4 3.5 1.4 0.6 0 -0.1 -0.6 -1.5 -1.4z m426 -7 c3.9 -1.9 7 -3.8 7 -4 0 -0.5 -13.9 6.2 -14.9 7.1 -1.3 1.2 1.8 0 7.9 -3.1z m-543.2 -2.2 c-1 -0.2 -2.6 -0.2 -3.5 0 -1 0.3 -0.2 0.5 1.7 0.5 1.9 0 2.7 -0.2 1.8 -0.5z m92.2 -2.8 c0 -0.2 -1.8 -1.4 -4 -2.5 -2.2 -1.1 -4 -1.8 -4 -1.5 0 0.2 1.7 1.3 3.8 2.4 4.2 2.3 4.2 2.3 4.2 1.6z m469 -5.1 c0 -0.2 -1.3 0.2 -3 1.1 -1.6 0.9 -3 1.8 -3 2.1 0 0.2 1.4 -0.2 3 -1.1 1.7 -0.9 3 -1.8 3 -2.1z m-489.5 -7 c-2.6 -2 -5.5 -3.6 -5.5 -3 0 0.5 6.3 4.6 7 4.6 0.3 -0.1 -0.4 -0.8 -1.5 -1.6z m510.8 -6.3 c0.7 -0.8 -0.7 -0.2 -3 1.4 -2.4 1.5 -4.3 3 -4.3 3.2 0 0.7 6.1 -3.1 7.3 -4.6z m15.3 -11.3 c0.4 -0.7 -0.9 0.1 -2.9 1.6 -2 1.6 -3.7 3 -3.7 3.3 0 0.7 5.8 -3.6 6.6 -4.9z m23.7 -20.7 c6.4 -6.3 11.7 -11.7 11.7 -12.1 0 -0.3 -5.1 4.4 -11.2 10.5 -6.2 6.1 -14 13.5 -17.3 16.4 l-6 5.3 5.5 -4.3 c3 -2.4 10.8 -9.5 17.3 -15.8z"/>
 </g>
 <g fill="#0068ff">
  <path d="M184.4 798.9 c-53.6 -2.9 -86.6 -13.9 -118.4 -39.6 -18.8 -15.2 -33.6 -33.8 -44.5 -55.8 -7.8 -15.8 -12.1 -28.5 -15.4 -45 -4.7 -23.8 -4.6 -17.6 -4.6 -260.5 0 -256.2 -0.5 -237.3 7 -266.5 8 -31.1 20.8 -54.4 42 -76.4 28.8 -29.7 61.1 -45.7 104.5 -51.6 20.9 -2.8 68.8 -4.7 73.5 -2.9 1.4 0.6 1.3 1 -1.2 3.1 l-2.8 2.3 3.8 -2.1 c3.5 -2 3.7 -2 3.7 -0.2 0 1.1 -3.2 4 -8.8 7.9 -66.1 46.4 -111.8 128.7 -128.7 231.4 -1.4 8.5 -2.5 16.7 -2.5 18.2 0 1.5 -0.3 2.8 -0.7 2.8 -0.5 0 -0.6 2.2 -0.5 5 0.2 2.7 0 5 -0.5 5 -0.4 0 -0.6 2.7 -0.5 6 0.3 4.8 0.1 6 -1.1 6 -0.9 0 -1.8 -0.8 -2 -1.7 -0.3 -1 -0.5 0.2 -0.5 2.7 0 2.5 0.2 3.7 0.5 2.7 1 -3.9 2.3 -0.1 2.3 6.9 0 5.7 -0.3 7.4 -1.4 7.4 -0.8 0 -1.7 -0.8 -1.9 -1.7 -0.3 -1 -0.5 7.9 -0.5 19.7 0 11.8 0.2 20.7 0.5 19.8 0.2 -1 1.1 -1.8 1.9 -1.8 1.1 0 1.4 1.6 1.4 6.9 0 6.6 -1.3 10.2 -2.3 6.4 -0.3 -1 -0.5 0 -0.5 2.2 0 2.2 0.2 3.2 0.5 2.3 0.2 -1 1.1 -1.8 2 -1.8 1.2 0 1.4 1.2 1.1 6 -0.1 3.3 -0.1 6 0.2 6 0.4 0 1.2 5 1.8 11.2 7 62.2 28.5 126.4 58.1 172.7 8.5 13.3 9.9 17 10.7 27.6 0.6 7.3 0.5 8.5 -0.9 8.5 -0.8 0 -1.8 -0.8 -2 -1.7 -0.3 -1 -0.5 0 -0.5 2.2 0 3 0.1 3.5 0.8 2 0.7 -1.9 0.8 -1.9 1.5 -0.2 2 4.9 -2.9 23.6 -9.7 37.2 -4.7 9.2 -8.4 14.9 -14.4 22.1 l-4.3 5.1 2.2 2.1 2.1 2.2 -2.5 0 c-1.4 0 -3.4 -0.9 -4.4 -2 -1.7 -1.9 -1.7 -2.1 0.8 -5.2 1.4 -1.8 3.8 -4.9 5.2 -6.8 l2.7 -3.5 -3.2 3.5 c-1.7 1.9 -4.3 5 -5.7 6.8 l-2.6 3.3 4.4 4.7 c2.4 2.6 12.3 12.8 21.9 22.7 9.7 9.9 25.2 26.1 34.5 36 9.3 9.9 28.4 29.7 42.5 44 14 14.3 27.4 28.3 29.7 31.1 l4.2 5.1 -19.6 0.6 c-23 0.8 -39.4 0.7 -58.9 -0.4z m-36.8 -174 c1.4 -2.8 2.4 -5.3 2.2 -5.5 -0.2 -0.2 -1.6 2.1 -3.1 5.1 -1.5 3 -2.5 5.5 -2.2 5.5 0.3 0 1.6 -2.3 3.1 -5.1z m-7.1 -81.9 c-0.9 -1.6 -1.8 -3 -2.1 -3 -0.2 0 0.2 1.4 1.1 3 0.9 1.7 1.8 3 2.1 3 0.2 0 -0.2 -1.3 -1.1 -3z m-5.5 -10 c-1.1 -2.2 -2.3 -4 -2.5 -4 -0.3 0 0.4 1.8 1.5 4 1.1 2.2 2.3 4 2.5 4 0.3 0 -0.4 -1.8 -1.5 -4z m-8.4 -16.7 c-1.4 -2.6 -2.5 -4.5 -2.6 -4.1 0 1.2 4.3 9.8 4.8 9.4 0.2 -0.2 -0.8 -2.6 -2.2 -5.3z m-38.9 -150 c-0.3 -1 -0.5 -0.2 -0.5 1.7 0 1.9 0.2 2.7 0.5 1.8 0.2 -1 0.2 -2.6 0 -3.5z m0 -94 c-0.3 -1 -0.5 -0.2 -0.5 1.7 0 1.9 0.2 2.7 0.5 1.8 0.2 -1 0.2 -2.6 0 -3.5z m1 -10 c-0.3 -1 -0.5 -0.2 -0.5 1.7 0 1.9 0.2 2.7 0.5 1.8 0.2 -1 0.2 -2.6 0 -3.5z m42.7 -146 c3.1 -6.2 5.4 -11.3 5.1 -11.3 -0.5 0 -11.5 21.6 -11.5 22.7 0 1.2 0.7 -0.1 6.4 -11.4z m9.1 -17.3 c0.9 -1.6 1.3 -3 1.1 -3 -0.3 0 -1.2 1.4 -2.1 3 -0.9 1.7 -1.3 3 -1.1 3 0.3 0 1.2 -1.3 2.1 -3z m8.6 -14.5 l1 -2 -1.6 2 c-0.9 1.1 -2.1 2.9 -2.6 4 l-1 2 1.6 -2 c0.9 -1.1 2.1 -2.9 2.6 -4z m5.9 -8.5 c1.2 -1.6 1.9 -3 1.6 -3 -0.2 0 -1.4 1.4 -2.6 3 -1.2 1.7 -1.9 3 -1.6 3 0.2 0 1.4 -1.3 2.6 -3z m9.9 -13.5 c3.4 -4.4 4.4 -6 2.2 -3.5 -3.9 4.3 -11.6 14.6 -9.4 12.5 0.6 -0.5 3.9 -4.6 7.2 -9z m29.7 -32.4 c4.4 -4.2 6.2 -6 4 -4.1 -8.1 7 -13.9 12.7 -20.8 20.5 l-7 8 7.9 -8.4 c4.4 -4.7 11.5 -11.9 15.9 -16z m25.9 -21.4 c2.1 -2.2 -8.2 5.5 -12.5 9.4 -2.5 2.2 -0.9 1.2 3.5 -2.2 4.4 -3.3 8.5 -6.6 9 -7.2z"/>
  <path d="M654 461.3 c0 -0.5 -2.8 -0.9 -6.3 -0.9 -8.2 -0.2 -21.3 -4.7 -31.1 -10.8 -10.9 -6.8 -21.3 -18.3 -26.9 -29.8 -6.5 -13.4 -8.1 -20.5 -8.1 -37.3 0 -16.9 1.5 -24 8.1 -37.5 4 -8.2 5.9 -10.7 14.2 -19 10.9 -10.8 20.1 -16.3 33.6 -20.2 6.7 -1.9 10.4 -2.3 22 -2.3 16.5 0 22.7 1.4 36 7.9 20.6 10.2 33.5 25.7 40 48.2 2.6 8.9 3.2 14.9 1.6 15.9 -0.5 0.3 -1.2 -0.3 -1.4 -1.2 -0.3 -1 -0.5 0.2 -0.5 2.7 0 2.5 0.2 3.7 0.5 2.8 0.9 -3.6 3.3 -2 3.3 2.2 0 4.2 -2.4 5.8 -3.3 2.3 -0.3 -1 -0.5 0.2 -0.5 2.7 0 3.3 0.2 4 0.8 2.5 0.7 -1.8 0.8 -1.9 1.5 -0.2 1.1 2.7 -0.3 11.6 -3.4 20.5 -5.7 16.4 -18.7 32.7 -32.7 41 -9.1 5.4 -21.4 9.5 -28.6 9.6 -3.2 0.1 -5.8 0.4 -5.8 0.9 0 0.4 -2.9 0.7 -6.5 0.7 -3.6 0 -6.5 -0.3 -6.5 -0.7z m1.8 -3 c-1 -0.2 -2.6 -0.2 -3.5 0 -1 0.3 -0.2 0.5 1.7 0.5 1.9 0 2.7 -0.2 1.8 -0.5z m13 0 c-1 -0.2 -2.6 -0.2 -3.5 0 -1 0.3 -0.2 0.5 1.7 0.5 1.9 0 2.7 -0.2 1.8 -0.5z m-44.8 -8.7 c0 -0.1 -2.2 -1.7 -5 -3.4 -2.7 -1.7 -5 -2.9 -5 -2.6 0 0.4 9 6.4 9.7 6.4 0.2 0 0.3 -0.2 0.3 -0.4z m-18 -14.3 c-9.5 -10 -9.7 -10.2 -8 -7.8 1.7 2.4 14.3 15.5 14.9 15.5 0.2 0 -2.9 -3.5 -6.9 -7.7z m113.7 -5.8 c2.4 -3.2 5.2 -7.3 6 -9 2.2 -4.2 1 -2.9 -3.5 4.1 -2.1 3.2 -6.1 8.4 -8.7 11.4 -2.8 3.1 -3.5 4.2 -1.6 2.5 1.8 -1.6 5.3 -5.7 7.8 -9z m-56.9 -2.2 c-3.2 -0.8 -1.9 -3 2 -3.6 12.7 -1.8 25.4 -11.3 31.7 -23.9 1.9 -3.8 3.7 -9.2 4.1 -11.9 0.7 -4.9 2.8 -6.7 3.7 -3.1 0.3 0.9 0.5 -0.3 0.5 -2.8 0 -2.5 -0.2 -3.7 -0.5 -2.7 -0.9 3.4 -3 1.7 -3.7 -2.9 -0.9 -7 -6.1 -16.9 -12 -22.7 -5.6 -5.7 -15.7 -11.2 -22.4 -12.3 -4.3 -0.7 -5.7 -2.9 -2.4 -3.7 0.9 -0.3 -1 -0.5 -4.3 -0.5 -3.3 0 -5.2 0.2 -4.2 0.5 3.3 0.9 1.7 2.8 -3.5 4.1 -16.4 3.9 -29.4 17.6 -32.9 35 -1.6 7.5 -0.5 13.9 3.7 22.9 5.4 11.4 19.9 22.4 31.5 23.9 4.9 0.7 6.7 2.8 3.2 3.7 -1 0.3 0.2 0.5 2.7 0.5 2.5 0 3.7 -0.2 2.8 -0.5z m-17.9 -2.7 c-1 -0.9 -8.9 -4.6 -8.9 -4.1 0 0.6 7.2 4.4 8.4 4.5 0.5 0 0.7 -0.2 0.5 -0.4z m38.2 -3.5 c2.4 -1.6 6.4 -5 8.9 -7.7 l4.5 -4.9 -5.5 5.2 c-3 2.8 -7.5 6.3 -10 7.7 -2.5 1.4 -4 2.6 -3.4 2.6 0.5 0 3 -1.3 5.5 -2.9z m-51.4 -4.4 c-2.1 -1.7 -5.2 -4.8 -6.9 -6.7 -2.9 -3.4 -2.9 -3.4 -0.9 -0.3 2.1 3.1 9.8 10.3 11 10.3 0.3 0 -1.1 -1.5 -3.2 -3.3z m67.8 -55.6 c-2.1 -4.3 -2.9 -3.9 -0.8 0.4 0.9 1.9 1.8 3.3 2.1 3.1 0.2 -0.2 -0.4 -1.8 -1.3 -3.5z m-70.5 -10.6 l4.4 -5 -4.5 4.2 c-2.4 2.4 -5.3 5.7 -6.2 7.5 -1.7 3.2 -1.7 3.2 0 0.8 1 -1.4 3.8 -4.7 6.3 -7.5z m61.5 -1.1 c-2.2 -2 -4.9 -4 -6 -4.5 -1.1 -0.6 -0.7 0 1 1.3 1.6 1.3 4.1 3.3 5.5 4.5 1.4 1.2 2.7 2.2 3 2.2 0.3 0 -1.3 -1.6 -3.5 -3.5z m37.1 -2.3 c-1.5 -2.8 -2.8 -5.1 -3.1 -5.1 -0.3 0 0.7 2.5 2.2 5.5 1.5 3 2.9 5.3 3.1 5.1 0.2 -0.2 -0.8 -2.7 -2.2 -5.5z m-135.2 1.2 c0.9 -1.8 1.4 -3.3 1.2 -3.3 -0.6 0 -3.6 5.5 -3.6 6.6 0 1.1 0.5 0.3 2.4 -3.3z m129.6 -10.3 c-1.1 -1.6 -2.6 -3.3 -3.2 -3.6 -0.7 -0.4 0.1 0.9 1.6 2.9 3.4 4.4 4.6 5 1.6 0.7z m-116 -8.5 c7.3 -7.8 7.3 -7.9 1.1 -2 -3.4 3.3 -7.2 7.4 -8.3 9 -2.4 3.4 -2.7 3.7 7.2 -7z m108 -1 c-2.4 -2.5 -4.6 -4.5 -4.9 -4.5 -0.3 0 1.5 2 3.9 4.5 2.4 2.5 4.6 4.5 4.9 4.5 0.3 0 -1.5 -2 -3.9 -4.5z m-7.3 -6.2 c-0.9 -1 -3.1 -2.7 -4.9 -3.7 -4 -2.3 -3.5 -1.7 1.7 2.3 4.6 3.4 5.4 3.8 3.2 1.4z m-8.7 -5.8 c0 -0.6 -9.7 -5.5 -10.7 -5.5 -0.4 0.1 1.7 1.4 4.7 3 6.1 3.2 6 3.2 6 2.5z m-68.4 -4.3 c-0.5 -0.4 -6.6 2.6 -6.6 3.3 0 0.3 1.6 -0.3 3.5 -1.2 1.9 -0.9 3.3 -1.8 3.1 -2.1z"/>
  <path d="M424 459.6 c0 -0.8 0.8 -1.7 1.8 -1.9 0.9 -0.3 -0.3 -0.5 -2.8 -0.5 -2.5 0 -3.7 0.2 -2.7 0.5 0.9 0.2 1.5 0.9 1.2 1.4 -1.8 2.8 -19.1 -1.2 -31.1 -7.1 -14.3 -7 -28.8 -22.7 -34.9 -37.7 -2.7 -6.8 -5.5 -19.5 -5.5 -25.2 0 -4.2 1.5 -6.4 2.3 -3.4 0.3 1 0.5 -0.4 0.5 -3.2 0 -3.5 -0.2 -4.4 -0.8 -3 -0.7 1.9 -0.8 1.9 -1.5 0.2 -0.4 -1 -0.5 -4.6 -0.1 -8.1 2.6 -25.7 17.9 -47.8 41.1 -59.2 13.3 -6.5 19.5 -7.9 36 -7.9 16.2 0 22.4 1.3 35.3 7.5 6.4 3 8.2 4.4 8.2 6 0 1.8 -0.3 1.9 -2.2 1 -2.2 -1.1 -2.2 -1 -0.4 0.4 3 2.4 3.6 2 3.6 -2.9 l0 -4.5 15 0 15 0 0.1 72.8 c0.1 40 0.3 71.9 0.6 70.9 0.6 -2.4 2.3 -1.1 2.3 1.9 l0 2.4 -12.5 0 c-14.6 0 -18.1 -1.1 -21.5 -6.4 -1.2 -2 -2.5 -3.5 -2.9 -3.3 -10 5.4 -22.9 9.7 -29.8 9.7 -3.5 0 -5.3 -1.6 -2.6 -2.3 1 -0.3 -0.4 -0.5 -3.2 -0.5 -2.7 0 -4.2 0.2 -3.2 0.5 3.2 0.8 1.9 3.3 -1.8 3.3 -2.4 0 -3.5 -0.5 -3.5 -1.4z m56 -3.7 c-1.4 -0.5 -3.6 -2.2 -4.8 -3.7 -1.9 -2.1 -2.1 -2.2 -1.3 -0.5 1.3 2.6 5 5.3 7.1 5.2 0.8 0 0.4 -0.5 -1 -1z m-102.2 -17.9 c-4.1 -3.8 -9.2 -9.5 -11.4 -12.7 -5.1 -7.7 -6.2 -8.8 -3.3 -3.3 2.3 4.2 19.7 23 21.3 23 0.5 0 -2.6 -3.1 -6.6 -7z m56 -11.7 c-3.1 -0.8 -1.9 -3.1 1.9 -3.8 8.5 -1.6 19.4 -9.3 25.3 -18 3.2 -4.7 7 -14.5 7 -18 0 -2.9 2.6 -3.4 3.3 -0.7 0.3 0.9 0.5 -0.8 0.5 -3.8 0 -3 -0.2 -4.7 -0.5 -3.7 -0.8 3.2 -3 1.8 -3.6 -2.4 -0.8 -6.3 -6.3 -16.4 -11.8 -21.9 -6.4 -6.4 -17.4 -11.8 -25.6 -12.6 -12.9 -1.4 -28.1 6.5 -36.1 18.6 -3.9 5.8 -7.2 14.1 -7.2 18.2 0 2.3 -2.7 2.4 -3.3 0.1 -0.3 -1 -0.5 1.1 -0.5 4.7 0 3.6 0.2 5.7 0.5 4.8 0.8 -3.2 3 -1.9 3.7 2 0.9 6 6.4 15.9 11.6 21.2 5.3 5.2 15.2 10.7 21.2 11.6 3.9 0.7 5.2 2.9 2.1 3.7 -1 0.3 1.6 0.5 5.7 0.5 4.1 0 6.7 -0.2 5.8 -0.5z m-21.9 -2.7 c-1 -0.9 -8.9 -4.6 -8.9 -4.1 0 0.6 7.2 4.4 8.4 4.5 0.5 0 0.7 -0.2 0.5 -0.4z m-12.4 -7.3 c-1.6 -1.4 -4.1 -3.8 -5.5 -5.2 -1.4 -1.5 -1.9 -1.8 -1.1 -0.7 1.6 2.3 8.3 8.6 9.1 8.6 0.3 -0.1 -0.8 -1.2 -2.5 -2.7z m59 -2.3 c2.7 -2.7 4.7 -5 4.4 -5 -0.3 0 -2.7 2.3 -5.4 5 -2.7 2.8 -4.7 5 -4.4 5 0.3 0 2.7 -2.2 5.4 -5z m-69 -10 c-0.9 -1.6 -1.8 -3 -2.1 -3 -0.2 0 0.2 1.4 1.1 3 0.9 1.7 1.8 3 2.1 3 0.2 0 -0.2 -1.3 -1.1 -3z m-0.6 -41.7 c1.2 -2.4 1.9 -4.3 1.6 -4.3 -0.5 0 -4.5 7.5 -4.5 8.6 0 1.1 0.6 0.2 2.9 -4.3z m72.7 -8.6 c-1.4 -1.8 -4 -4.3 -5.8 -5.7 -2.2 -1.6 -1.4 -0.5 2.2 3.3 3 3.1 5.6 5.6 5.8 5.7 0.2 0 -0.8 -1.5 -2.2 -3.3z m-87.5 -24.2 c0.6 -1.1 -0.6 0 -2.7 2.4 -5.5 6.3 -7.5 9.5 -2.5 4.1 2.3 -2.5 4.6 -5.4 5.2 -6.5z m5.5 -4.7 l2.9 -3.3 -3.2 2.9 c-3.1 2.8 -3.8 3.6 -3 3.6 0.2 0 1.6 -1.5 3.3 -3.2z m18 -11.6 c-0.5 -0.4 -8.6 3.6 -8.6 4.3 0 0.3 2 -0.5 4.5 -1.7 2.4 -1.2 4.3 -2.3 4.1 -2.6z"/>
  <path d="M182 457.6 c0 -3 1.7 -4.3 2.3 -1.9 0.3 1 0.5 -0.7 0.5 -3.7 0 -3 -0.2 -4.7 -0.5 -3.7 -0.7 2.9 -2.3 0.8 -2.3 -3 0 -2 0.7 -6.3 1.7 -9.6 1.5 -5.4 5.9 -11.2 53.5 -70.5 l51.8 -64.7 -44.2 -0.3 c-24.4 -0.1 -45 -0.5 -45.8 -0.8 -1.2 -0.5 -1.1 -0.8 0.5 -1.4 1.4 -0.6 0.3 -0.9 -3.7 -0.9 l-5.8 -0.1 0 -16 0 -16 40.3 -0.1 c22.1 -0.1 39.4 -0.3 38.5 -0.6 -1 -0.2 -1.8 -1.1 -1.8 -1.9 0 -1.2 3.7 -1.4 23 -1.4 19.3 0 23 0.2 23 1.4 0 0.8 -0.8 1.7 -1.7 1.9 -1 0.3 6.1 0.5 15.7 0.5 9.6 0 16.7 -0.2 15.7 -0.5 -2.4 -0.6 -1.1 -2.3 1.9 -2.3 2.3 0 2.4 0.3 2.4 6 0 3.3 -0.3 6 -0.7 6 -0.5 0 -0.8 2.4 -0.9 5.3 0 3 -1 7.2 -2.2 9.9 -1.1 2.6 -11.3 16.3 -22.6 30.5 -11.3 14.2 -34.2 43.1 -50.9 64.3 l-30.5 38.5 53.4 0.3 53.4 0.2 0 2.4 c0 3 -1.7 4.3 -2.3 1.9 -0.3 -1 -0.5 0 -0.5 2.2 0 2.2 0.2 3.2 0.5 2.3 0.2 -1 1.1 -1.8 2 -1.8 2.4 0 1.4 18.3 -1.3 23 -4.2 7.3 0.1 7 -85.6 7 l-76.8 0 0 -2.4z m157.6 -4 c1.9 -1.9 3.4 -4 3.4 -4.7 0 -0.8 -0.9 0.1 -2 1.9 -1.1 1.8 -3.5 3.9 -5.3 4.7 -2 0.9 -2.5 1.4 -1.3 1.5 1 0 3.3 -1.5 5.2 -3.4z m-134.7 -41.3 c8.8 -11.2 15.9 -20.3 15.6 -20.3 -0.7 0 -32.5 39.9 -32.5 40.7 0 0.8 -1.9 3.1 16.9 -20.4z m44.7 -8.5 c3.2 -4 7.3 -9.2 9.2 -11.5 1.9 -2.4 3.2 -4.3 2.9 -4.3 -0.2 0 -3.1 3.3 -6.3 7.3 -3.2 3.9 -7.3 9.1 -9.2 11.5 -1.9 2.3 -3.2 4.2 -2.9 4.2 0.2 0 3.1 -3.3 6.3 -7.2z m22.9 -28.9 c2.7 -3.5 4.5 -6 3.9 -5.7 -0.5 0.4 -3.2 3.5 -5.9 6.9 -2.7 3.5 -4.5 6 -3.9 5.7 0.5 -0.4 3.2 -3.5 5.9 -6.9z m-6.4 -39.1 c13.3 -16.7 24.9 -31.2 25.8 -32.3 l1.5 -2 -2.1 2 c-2.7 2.7 -50.5 62.5 -49.8 62.5 0.2 0 11.3 -13.6 24.6 -30.2z m21.4 20.1 c2.7 -3.5 4.5 -6 3.9 -5.7 -0.5 0.4 -3.2 3.5 -5.9 6.9 -2.7 3.5 -4.5 6 -3.9 5.7 0.5 -0.4 3.2 -3.5 5.9 -6.9z m19.1 -24.4 c2.5 -3.3 3.2 -4.4 1.4 -2.5 -1.7 1.9 -5.1 6.2 -7.6 9.5 -2.5 3.3 -3.2 4.4 -1.4 2.5 1.7 -1.9 5.1 -6.2 7.6 -9.5z m23 -28.7 c3.2 -4 5.1 -6.7 4.3 -6 -1.9 1.4 -11.2 13.2 -10.6 13.2 0.3 0 3.1 -3.3 6.3 -7.2z m14.1 -30.5 c-0.3 -1 -0.5 -0.2 -0.5 1.7 0 1.9 0.2 2.7 0.5 1.8 0.2 -1 0.2 -2.6 0 -3.5z"/>
  <path d="M532.4 458.4 c-6 -3 -6.4 -4.7 -6.4 -30.7 0 -13.4 0.4 -23.8 0.9 -24.2 0.5 -0.3 1.2 0.3 1.4 1.2 0.3 1 0.5 -13 0.5 -31.2 0 -18.1 -0.2 -32.2 -0.5 -31.2 -0.2 0.9 -0.9 1.5 -1.4 1.2 -0.5 -0.4 -0.9 -18 -0.9 -42.6 l0 -41.9 19.5 0 19.5 0 0 100.5 0 100.5 -7.9 0 c-7.4 0 -11.4 -1.3 -7.4 -2.3 1 -0.3 -0.9 -0.5 -4.2 -0.5 -3.3 0 -5.2 0.2 -4.2 0.5 0.9 0.2 1.5 0.9 1.2 1.4 -0.9 1.4 -6.6 1 -10.1 -0.7z"/>
 </g>
 <g fill="#ffffff">
  <path d="M450.3 707 c-78.8 -5.5 -153.5 -27 -206.8 -59.5 -6 -3.7 -11.5 -6.8 -12 -6.8 -0.6 0 -5.8 1.8 -11.5 4.1 -23 8.9 -44.2 13.1 -71 13.9 -17.8 0.5 -18.6 0.5 -20.4 -1.5 -1.8 -2.1 -1.8 -2.2 0 -4.5 1.1 -1.3 3.8 -4.9 6.2 -7.9 14.6 -18.8 23.1 -41.3 23.2 -61.4 0 -9.4 -2 -15.6 -8.2 -25 -29.1 -44.6 -49.8 -102.3 -58.7 -163.4 -4.1 -28.2 -4.6 -36.7 -4.5 -75.5 0 -41 1.3 -57.4 7 -88.4 13.2 -73.1 42.8 -137.7 84.2 -183.7 17.4 -19.4 46.2 -43 55.4 -45.5 2.9 -0.7 59.9 -1 195.7 -1 188.6 0 191.9 0 210 2.1 10.1 1.2 23.4 3.4 29.5 4.9 28 7.1 55 21.6 75.1 40.3 22.9 21.4 40.7 53 49.1 87.3 5.6 23 5.4 14.7 5.4 244.7 l0 212 -7.7 8.1 c-55.5 57.4 -143.6 94.4 -250.3 105.2 -18.2 1.9 -71.8 2.7 -89.7 1.5z m231.2 -251 c21 -6.6 37.3 -20.7 46.6 -40.5 6 -12.8 7.4 -19.1 7.3 -34 0 -11.9 -0.3 -13.8 -3.2 -22.5 -4.2 -12.6 -9.1 -20.8 -18.2 -30 -8.7 -8.9 -19.7 -15.8 -31.5 -19.7 -7.3 -2.5 -9.4 -2.7 -23 -2.8 -13.9 0 -15.6 0.2 -23 2.8 -20.5 7.2 -38.5 23.6 -46.7 42.5 -3.5 8.2 -5.8 20.1 -5.8 30 0 13.2 2.2 22.9 8.2 35.2 4.5 9.3 6.1 11.5 14.2 19.5 11.8 11.7 22.7 17.6 38.6 21 9.5 2.1 27.6 1.3 36.5 -1.5z m-238.7 0.5 c7.2 -1.5 21.2 -7.3 25.6 -10.8 1.9 -1.4 2.1 -1.2 4.2 3.3 1.2 2.7 3.3 5.5 4.6 6.3 2.3 1.5 10.3 2.2 20.6 1.9 l5.2 -0.2 0 -73 0 -73 -16 0 -16 0 0 4.5 0 4.4 -8.9 -4.5 c-13.3 -6.7 -22.7 -8.7 -37.5 -8.2 -10.2 0.4 -13.5 0.9 -20.9 3.5 -24.5 8.6 -42.4 27.6 -48.8 52 -2.7 10.3 -3 27.8 -0.5 37.8 6.1 24.3 24.4 44.7 47.5 52.9 13.2 4.7 27.3 5.8 40.9 3.1z m111 0.8 l8.2 -0.6 0 -97.3 0 -97.4 -16.3 0 -16.4 0 -0.6 60.8 c-0.8 65.5 -0.1 124.2 1.4 128.2 1 2.7 3.7 4.8 7.9 6.1 3.3 1 5.9 1 15.8 0.2z m-215.3 -2.5 c4.3 -3.3 5.5 -7.6 5.5 -18.8 l0 -10 -55.9 -0.2 -55.8 -0.3 21.1 -26.6 c76.5 -96.4 86.2 -108.9 88 -113.5 1 -2.7 2 -8.6 2.3 -13.1 l0.6 -8.3 -77.7 0 -77.6 0 0 16.8 0 16.7 53.7 -0.3 53.7 -0.4 -3.5 4.4 c-44.4 54.9 -104.8 131 -105.7 133.3 -1.5 3.6 -3.2 13.6 -3.2 18.8 l0 3.7 75.9 0 75.8 0 2.8 -2.2z"/>
  <path d="M649.8 425.9 c-6.6 -1.5 -16 -6.9 -21.4 -12.3 -9.8 -9.8 -14.5 -23.8 -12.4 -37 4.9 -31.5 37.4 -48 65.1 -33 21.5 11.7 29.2 39.4 16.9 60.9 -3.5 6.1 -12 14.4 -17.6 17.3 -9.4 4.8 -21.2 6.4 -30.6 4.1z"/>
  <path d="M415.5 424.6 c-15.1 -5 -25.1 -14.8 -30 -29.7 -1.3 -3.8 -1.6 -7.4 -1.3 -14.3 0.3 -8 0.8 -10.1 4 -16.9 8.5 -17.9 27.4 -28.2 45.5 -24.8 30.7 5.6 46.2 36.9 32.1 64.6 -3.4 6.5 -12.2 14.9 -19.6 18.6 -6 3 -7.7 3.4 -16.7 3.6 -6.3 0.2 -11.5 -0.2 -14 -1.1z"/>
 </g>
</svg>